<?xml version="1.0" encoding="utf-8"?>
<!-- Generator: Adobe Illustrator 24.1.3, SVG Export Plug-In . SVG Version: 6.00 Build 0)  -->
<svg version="1.1" id="Ebene_1" xmlns="http://www.w3.org/2000/svg" xmlns:xlink="http://www.w3.org/1999/xlink" x="0px" y="0px"
	 viewBox="0 0 200 200" style="enable-background:new 0 0 200 200;" xml:space="preserve">
<style type="text/css">
	.st0{fill:#121310;}
</style>
<g>
	<g>
		<path class="st0" d="M49.5,109.6l-3.2,6.9h-5.8L56.8,82l16.3,34.6h-5.8l-3.2-6.9H49.5z M56.8,93.6l-5.2,11.3H62L56.8,93.6z"/>
		<path class="st0" d="M106.9,110.4c-3.3,4.6-8.5,6.9-13.8,6.9c-11.5,0-16.3-8.5-16.3-17.5c0-11.1,6.6-17.5,16.3-17.5
			c5.3,0,10.6,2.3,13.8,6.8l-4.1,3.4c-1.9-2.9-6-5.1-9.6-5.1c-7.3,0-10.6,4.9-10.6,12.4c0,7.5,3.4,12.4,10.6,12.4
			c3.4,0,7.6-2.2,9.6-5.1L106.9,110.4z"/>
		<path class="st0" d="M135.7,94.8l-9.8,23.2l-14-35.1h5.9l8.4,21.9l9.5-22.5l9.5,22.5l8.4-21.9h5.9l-14,35.1L135.7,94.8z"/>
	</g>
	<path class="st0" d="M100,7c51.3,0,93,41.7,93,93s-41.7,93-93,93S7,151.3,7,100S48.7,7,100,7 M100,0C44.8,0,0,44.8,0,100
		c0,55.2,44.8,100,100,100c55.2,0,100-44.8,100-100C200,44.8,155.2,0,100,0L100,0z"/>
</g>
</svg>
